<svg xmlns="http://www.w3.org/2000/svg" viewBox="0 -0.5 160 160" shape-rendering="crispEdges">
<metadata>Made with Pixels to Svg https://codepen.io/shshaw/pen/XbxvNj</metadata>
<path stroke="#000000" d="M45 1h5M13 2h5M44 2h1M50 2h1M77 2h5M109 2h5M141 2h5M12 3h1M18 3h1M43 3h1M51 3h1M76 3h1M82 3h1M108 3h1M114 3h1M140 3h1M146 3h1M11 4h1M19 4h1M42 4h1M52 4h1M75 4h1M83 4h1M107 4h1M115 4h1M139 4h1M147 4h1M10 5h1M20 5h1M41 5h1M45 5h9M74 5h1M84 5h1M106 5h1M116 5h1M138 5h1M148 5h1M9 6h1M13 6h9M41 6h1M45 6h1M53 6h1M73 6h1M77 6h9M105 6h1M109 6h9M137 6h1M141 6h9M9 7h1M13 7h1M21 7h1M41 7h1M45 7h1M53 7h1M73 7h1M77 7h1M85 7h1M105 7h1M109 7h1M117 7h1M137 7h1M141 7h1M149 7h1M9 8h1M13 8h1M21 8h1M41 8h1M45 8h1M53 8h1M73 8h1M77 8h1M85 8h1M105 8h1M109 8h1M117 8h1M137 8h1M141 8h1M149 8h1M9 9h1M13 9h1M21 9h1M41 9h1M44 9h1M53 9h1M73 9h1M77 9h1M85 9h1M105 9h1M109 9h1M117 9h1M137 9h1M141 9h1M149 9h1M9 10h1M12 10h1M21 10h1M42 10h1M44 10h1M52 10h1M73 10h1M76 10h1M85 10h1M105 10h1M108 10h1M117 10h1M137 10h1M141 10h1M149 10h1M10 11h1M12 11h1M20 11h1M43 11h2M51 11h1M74 11h1M76 11h1M84 11h1M106 11h1M108 11h1M116 11h1M137 11h1M140 11h1M149 11h1M11 12h2M19 12h1M42 12h1M44 12h1M50 12h1M75 12h2M83 12h1M107 12h2M115 12h1M138 12h1M140 12h1M148 12h1M10 13h1M12 13h1M18 13h1M42 13h1M45 13h5M51 13h1M74 13h1M76 13h1M82 13h1M108 13h1M114 13h1M122 13h2M139 13h2M147 13h1M10 14h1M13 14h5M19 14h1M42 14h1M51 14h1M74 14h1M77 14h5M83 14h1M107 14h1M109 14h5M115 14h1M121 14h1M124 14h1M140 14h1M146 14h2M10 15h1M19 15h1M42 15h1M45 15h1M50 15h1M52 15h1M74 15h1M83 15h2M105 15h2M116 15h1M119 15h2M122 15h1M124 15h1M139 15h1M141 15h5M147 15h1M10 16h1M13 16h1M18 16h1M20 16h1M41 16h1M45 16h1M50 16h1M52 16h1M73 16h1M77 16h1M82 16h1M84 16h1M103 16h2M109 16h1M117 16h2M122 16h1M124 16h1M138 16h1M148 16h1M9 17h1M13 17h1M18 17h1M20 17h1M41 17h1M45 17h1M50 17h1M52 17h1M73 17h1M77 17h1M82 17h1M85 17h1M102 17h1M107 17h2M114 17h1M123 17h1M138 17h1M141 17h1M148 17h1M9 18h1M13 18h1M18 18h1M20 18h1M41 18h1M45 18h1M50 18h1M52 18h1M73 18h1M76 18h2M82 18h1M85 18h1M101 18h1M106 18h2M114 18h2M121 18h2M137 18h1M141 18h1M146 18h1M149 18h1M9 19h1M13 19h1M18 19h1M20 19h1M41 19h1M45 19h1M50 19h1M53 19h1M73 19h1M76 19h2M82 19h1M86 19h1M101 19h1M105 19h1M107 19h1M114 19h1M116 19h1M119 19h2M137 19h1M140 19h1M146 19h2M149 19h5M9 20h1M13 20h1M18 20h1M21 20h1M41 20h1M44 20h1M50 20h1M53 20h1M72 20h1M76 20h2M82 20h1M86 20h1M100 20h2M104 20h1M107 20h1M114 20h1M117 20h2M136 20h1M139 20h1M146 20h2M152 20h1M154 20h1M9 21h1M12 21h1M18 21h1M21 21h1M41 21h4M50 21h4M72 21h3M76 21h1M82 21h1M84 21h3M100 21h1M102 21h2M107 21h1M114 21h1M136 21h4M146 21h1M148 21h1M152 21h1M154 21h1M9 22h4M18 22h4M41 22h1M44 22h7M53 22h1M72 22h1M75 22h2M82 22h2M86 22h1M100 22h1M103 22h1M107 22h3M114 22h1M129 22h2M135 22h1M138 22h2M146 22h1M148 22h1M152 22h1M154 22h1M9 23h1M12 23h7M21 23h1M42 23h3M50 23h3M72 23h1M75 23h8M84 23h2M101 23h2M107 23h1M110 23h5M128 23h1M135 23h1M138 23h3M146 23h1M149 23h5M10 24h3M18 24h3M44 24h1M50 24h1M73 24h2M76 24h1M82 24h1M97 24h1M106 24h1M115 24h2M121 24h1M128 24h1M136 24h2M139 24h1M141 24h6M12 25h1M18 25h1M44 25h1M47 25h1M50 25h1M76 25h1M82 25h1M97 25h1M100 25h3M106 25h1M117 25h2M120 25h1M122 25h1M139 25h1M147 25h1M12 26h1M15 26h1M18 26h1M44 26h1M47 26h1M50 26h1M76 26h1M79 26h1M82 26h1M97 26h1M100 26h1M103 26h3M110 26h4M119 26h1M122 26h1M140 26h1M142 26h1M148 26h1M12 27h1M15 27h1M18 27h1M44 27h1M47 27h1M50 27h1M76 27h1M79 27h1M82 27h1M99 27h1M103 27h1M109 27h1M114 27h2M119 27h1M122 27h1M137 27h4M143 27h3M148 27h1M151 27h1M12 28h1M15 28h1M18 28h1M44 28h1M47 28h1M50 28h1M76 28h1M79 28h1M82 28h1M99 28h1M102 28h3M108 28h1M116 28h2M119 28h1M121 28h1M136 28h2M140 28h4M146 28h2M149 28h2M152 28h1M12 29h5M18 29h4M44 29h5M50 29h4M76 29h5M82 29h4M99 29h1M102 29h1M105 29h3M118 29h2M121 29h1M136 29h1M138 29h4M146 29h1M152 29h1M12 30h1M17 30h1M22 30h1M44 30h1M49 30h1M54 30h1M76 30h1M81 30h1M86 30h1M100 30h2M120 30h2M137 30h1M140 30h1M146 30h1M151 30h1M12 31h11M44 31h11M76 31h11M138 31h3M147 31h4M77 34h5M109 34h5M141 34h5M13 35h5M45 35h5M76 35h1M82 35h1M108 35h1M114 35h1M140 35h1M146 35h1M12 36h1M18 36h1M44 36h1M50 36h1M75 36h1M83 36h1M107 36h1M115 36h1M139 36h1M147 36h1M11 37h1M19 37h1M43 37h1M51 37h1M74 37h1M84 37h1M106 37h1M116 37h1M138 37h1M148 37h1M10 38h1M20 38h1M42 38h1M52 38h1M73 38h1M77 38h9M105 38h1M109 38h9M137 38h1M141 38h9M9 39h1M13 39h9M41 39h1M45 39h9M73 39h1M77 39h1M85 39h1M105 39h1M109 39h1M117 39h1M137 39h1M141 39h1M149 39h1M9 40h1M13 40h1M21 40h1M41 40h1M45 40h1M53 40h1M73 40h1M77 40h1M85 40h1M105 40h1M109 40h1M117 40h1M137 40h1M141 40h1M149 40h1M9 41h1M13 41h1M21 41h1M41 41h1M45 41h1M53 41h1M73 41h1M77 41h1M85 41h1M105 41h1M109 41h1M117 41h1M137 41h1M141 41h1M149 41h1M9 42h1M13 42h1M21 42h1M41 42h1M44 42h1M53 42h1M73 42h1M76 42h1M85 42h1M105 42h1M109 42h1M117 42h1M137 42h1M141 42h1M149 42h1M9 43h1M12 43h1M21 43h1M42 43h1M44 43h1M52 43h1M74 43h1M76 43h1M84 43h1M105 43h1M108 43h1M117 43h1M137 43h1M140 43h1M149 43h1M10 44h1M12 44h1M20 44h1M43 44h2M51 44h1M75 44h2M83 44h1M106 44h1M108 44h1M116 44h1M138 44h1M140 44h1M148 44h1M11 45h2M19 45h1M44 45h1M50 45h1M76 45h1M82 45h1M107 45h2M115 45h1M139 45h2M147 45h1M12 46h1M18 46h1M45 46h5M74 46h2M77 46h5M107 46h2M114 46h1M139 46h2M146 46h1M11 47h9M43 47h2M50 47h1M73 47h1M75 47h1M82 47h1M86 47h2M107 47h7M139 47h7M11 48h1M18 48h1M20 48h1M43 48h1M50 48h1M72 48h1M75 48h1M79 48h1M82 48h1M85 48h1M88 48h1M107 48h1M109 48h1M114 48h1M139 48h1M141 48h1M146 48h1M10 49h1M14 49h1M18 49h1M20 49h1M43 49h2M48 49h1M50 49h1M72 49h1M75 49h1M80 49h1M82 49h3M86 49h1M88 49h1M107 49h1M109 49h1M114 49h1M139 49h1M141 49h1M146 49h1M10 50h1M13 50h1M18 50h2M42 50h2M45 50h1M49 50h2M71 50h2M75 50h1M77 50h1M81 50h2M86 50h1M88 50h1M107 50h1M110 50h1M114 50h1M139 50h1M142 50h1M146 50h1M9 51h1M12 51h1M18 51h1M41 51h1M43 51h1M46 51h1M50 51h2M71 51h1M73 51h3M78 51h1M87 51h1M106 51h2M110 51h1M114 51h3M138 51h2M142 51h1M146 51h3M9 52h1M12 52h1M18 52h2M41 52h1M43 52h1M46 52h1M51 52h2M71 52h1M74 52h2M79 52h1M85 52h2M105 52h1M107 52h1M111 52h4M117 52h1M137 52h1M139 52h1M143 52h4M149 52h1M10 53h1M12 53h2M18 53h1M20 53h1M42 53h2M47 53h1M51 53h1M53 53h1M72 53h2M75 53h1M80 53h1M83 53h2M105 53h1M107 53h2M115 53h1M117 53h1M137 53h1M139 53h2M147 53h1M149 53h1M10 54h2M14 54h1M18 54h1M21 54h1M43 54h1M48 54h1M50 54h1M53 54h1M75 54h1M80 54h3M97 54h2M106 54h2M109 54h1M115 54h1M117 54h1M129 54h2M138 54h2M141 54h1M147 54h1M149 54h1M2 55h1M11 55h1M14 55h1M18 55h3M44 55h6M52 55h1M75 55h5M82 55h1M96 55h1M107 55h1M110 55h1M114 55h3M128 55h1M139 55h1M142 55h1M146 55h3M12 56h7M44 56h2M50 56h2M65 56h1M74 56h1M76 56h2M83 56h2M89 56h1M96 56h1M107 56h7M128 56h1M139 56h7M13 57h1M19 57h1M44 57h1M46 57h3M52 57h1M65 57h1M68 57h3M74 57h1M78 57h1M85 57h2M88 57h1M90 57h1M107 57h2M111 57h1M114 57h1M139 57h2M143 57h1M146 57h1M14 58h1M17 58h1M20 58h1M44 58h1M47 58h1M49 58h1M52 58h1M65 58h1M68 58h1M71 58h3M78 58h4M87 58h1M90 58h1M106 58h1M108 58h1M112 58h1M114 58h1M138 58h1M140 58h1M144 58h1M146 58h1M14 59h2M18 59h1M20 59h1M44 59h1M47 59h1M49 59h5M67 59h1M71 59h1M77 59h1M82 59h2M87 59h1M90 59h1M106 59h1M109 59h1M112 59h2M116 59h2M138 59h1M141 59h1M144 59h2M148 59h2M13 60h1M16 60h1M18 60h2M37 60h1M43 60h4M49 60h1M54 60h1M67 60h1M70 60h3M76 60h1M84 60h2M87 60h1M89 60h1M107 60h1M110 60h1M113 60h3M118 60h1M139 60h1M142 60h1M145 60h3M150 60h1M14 61h1M17 61h5M38 61h1M43 61h1M46 61h2M49 61h6M67 61h1M70 61h1M73 61h3M86 61h2M89 61h1M107 61h1M110 61h2M113 61h1M117 61h2M139 61h1M142 61h2M145 61h1M149 61h2M8 62h1M15 62h1M17 62h1M22 62h1M39 62h1M43 62h1M48 62h1M68 62h2M88 62h2M108 62h2M112 62h1M116 62h1M140 62h2M144 62h1M148 62h1M9 63h2M16 63h1M18 63h5M44 63h4M113 63h3M145 63h3M142 64h3M140 65h2M145 65h2M109 66h5M139 66h1M147 66h1M13 67h5M45 67h5M108 67h1M114 67h1M139 67h1M147 67h1M12 68h1M18 68h1M44 68h1M50 68h1M107 68h1M115 68h1M138 68h1M142 68h7M11 69h1M19 69h1M43 69h1M51 69h1M106 69h1M116 69h1M138 69h1M141 69h1M148 69h1M10 70h1M20 70h1M42 70h1M52 70h1M105 70h1M109 70h9M138 70h1M141 70h1M148 70h1M9 71h1M13 71h9M41 71h1M45 71h9M77 71h5M105 71h1M109 71h1M117 71h1M138 71h1M141 71h1M148 71h1M9 72h1M13 72h1M21 72h1M41 72h1M45 72h1M53 72h1M76 72h1M82 72h1M105 72h1M109 72h1M117 72h1M138 72h1M141 72h1M148 72h1M9 73h1M13 73h1M21 73h1M41 73h1M45 73h1M53 73h1M75 73h1M83 73h1M105 73h1M109 73h1M117 73h1M138 73h1M140 73h1M148 73h1M9 74h1M13 74h1M21 74h1M41 74h1M44 74h1M53 74h1M74 74h1M84 74h1M105 74h1M108 74h1M117 74h1M139 74h2M147 74h1M9 75h1M12 75h1M21 75h1M42 75h1M44 75h1M52 75h1M73 75h1M77 75h9M106 75h1M108 75h1M116 75h1M138 75h3M147 75h1M10 76h1M12 76h1M20 76h1M43 76h2M51 76h1M73 76h1M77 76h1M85 76h1M107 76h2M115 76h1M138 76h1M140 76h2M145 76h3M11 77h2M19 77h1M44 77h1M50 77h1M73 77h1M77 77h1M85 77h1M106 77h1M108 77h1M114 77h1M138 77h1M142 77h3M147 77h1M12 78h1M18 78h1M44 78h6M73 78h1M77 78h1M85 78h1M106 78h1M109 78h5M115 78h1M138 78h1M146 78h1M148 78h1M11 79h9M43 79h1M50 79h2M73 79h1M76 79h1M85 79h1M106 79h1M115 79h1M138 79h1M146 79h1M148 79h1M11 80h1M18 80h1M20 80h1M41 80h2M46 80h1M50 80h1M52 80h1M74 80h1M76 80h1M84 80h1M106 80h1M109 80h1M114 80h1M116 80h1M137 80h1M141 80h1M146 80h1M148 80h1M10 81h1M14 81h1M18 81h1M20 81h1M40 81h1M44 81h2M50 81h1M53 81h1M56 81h2M74 81h3M83 81h1M105 81h1M109 81h1M114 81h1M116 81h1M137 81h1M141 81h1M146 81h1M148 81h1M10 82h1M13 82h1M18 82h2M40 82h1M43 82h1M50 82h1M54 82h2M58 82h1M72 82h2M76 82h1M82 82h1M105 82h1M109 82h1M114 82h1M116 82h1M137 82h1M141 82h1M146 82h1M148 82h1M9 83h1M12 83h1M18 83h1M39 83h1M43 83h1M50 83h1M55 83h1M58 83h1M70 83h2M77 83h6M105 83h1M109 83h1M114 83h1M116 83h1M137 83h1M140 83h1M146 83h1M148 83h2M9 84h1M12 84h1M18 84h2M39 84h3M43 84h1M50 84h3M55 84h1M58 84h1M69 84h1M75 84h1M82 84h1M105 84h1M109 84h1M114 84h1M117 84h1M137 84h4M146 84h2M149 84h1M10 85h1M12 85h2M18 85h1M20 85h1M39 85h1M42 85h2M50 85h1M53 85h5M69 85h1M72 85h1M74 85h1M82 85h2M105 85h1M108 85h1M114 85h1M117 85h1M137 85h1M140 85h1M146 85h1M149 85h1M10 86h2M14 86h1M18 86h1M21 86h1M39 86h1M42 86h2M50 86h1M69 86h1M73 86h2M82 86h1M84 86h1M105 86h4M114 86h4M138 86h2M141 86h8M2 87h1M11 87h1M14 87h1M18 87h3M40 87h2M43 87h2M50 87h1M70 87h1M72 87h1M75 87h1M82 87h1M84 87h1M105 87h1M108 87h7M117 87h1M140 87h1M146 87h1M12 88h7M44 88h7M71 88h2M75 88h9M106 88h3M114 88h3M140 88h1M146 88h1M13 89h1M19 89h1M44 89h1M50 89h1M73 89h2M76 89h2M81 89h1M83 89h2M108 89h1M114 89h1M140 89h1M143 89h1M146 89h1M14 90h1M17 90h1M20 90h1M41 90h3M47 90h1M51 90h1M78 90h2M82 90h1M85 90h1M108 90h1M111 90h1M114 90h1M139 90h1M143 90h1M146 90h1M14 91h1M18 91h1M20 91h1M40 91h3M45 91h2M48 91h1M52 91h1M78 91h2M82 91h1M85 91h1M108 91h1M111 91h1M114 91h1M139 91h1M143 91h1M146 91h1M13 92h1M17 92h1M19 92h1M37 92h1M40 92h1M43 92h2M48 92h1M51 92h4M76 92h2M80 92h2M84 92h1M108 92h1M111 92h1M114 92h1M139 92h7M12 93h5M18 93h4M38 93h1M41 93h1M44 93h2M49 93h2M55 93h1M76 93h10M108 93h5M114 93h4M139 93h1M143 93h1M146 93h1M8 94h1M12 94h1M17 94h1M22 94h1M39 94h1M42 94h1M46 94h1M49 94h1M53 94h3M76 94h1M81 94h1M86 94h1M108 94h1M113 94h1M118 94h1M140 94h2M143 94h1M147 94h1M9 95h2M12 95h11M43 95h4M50 95h3M76 95h11M108 95h11M142 95h1M144 95h3M14 96h3M46 96h3M78 96h3M109 96h5M141 96h5M12 97h2M17 97h2M44 97h2M49 97h2M76 97h2M81 97h2M108 97h1M114 97h1M140 97h1M146 97h1M11 98h1M19 98h1M43 98h1M51 98h1M75 98h1M83 98h1M107 98h1M115 98h1M139 98h1M147 98h1M11 99h1M19 99h1M43 99h1M51 99h1M75 99h1M83 99h1M106 99h1M116 99h1M138 99h1M148 99h1M10 100h1M14 100h7M42 100h1M45 100h8M74 100h1M77 100h8M105 100h1M109 100h9M137 100h1M141 100h9M10 101h1M13 101h1M20 101h1M42 101h1M45 101h1M52 101h1M74 101h1M77 101h1M84 101h1M105 101h1M109 101h1M117 101h1M137 101h1M141 101h1M149 101h1M10 102h1M13 102h1M20 102h1M42 102h1M45 102h1M52 102h1M74 102h1M77 102h1M84 102h1M105 102h1M109 102h1M117 102h1M137 102h1M141 102h1M149 102h1M10 103h1M13 103h1M20 103h1M42 103h1M44 103h1M52 103h1M74 103h1M76 103h1M84 103h1M105 103h1M109 103h1M117 103h1M137 103h1M141 103h1M149 103h1M10 104h1M13 104h1M20 104h1M42 104h1M44 104h1M52 104h1M74 104h1M76 104h1M84 104h1M105 104h1M108 104h1M117 104h1M137 104h1M140 104h1M149 104h1M10 105h1M12 105h1M20 105h1M43 105h2M51 105h1M75 105h2M83 105h1M106 105h1M108 105h1M116 105h1M138 105h1M140 105h1M148 105h1M11 106h2M19 106h1M42 106h3M51 106h1M74 106h3M83 106h1M105 106h1M107 106h2M115 106h2M138 106h3M147 106h1M149 106h1M10 107h3M19 107h1M42 107h1M44 107h2M49 107h3M73 107h1M76 107h2M81 107h2M84 107h1M104 107h1M108 107h1M114 107h1M117 107h1M136 107h2M140 107h1M146 107h1M150 107h1M10 108h1M12 108h2M17 108h3M41 108h1M46 108h3M52 108h1M72 108h1M78 108h3M85 108h1M103 108h1M107 108h1M109 108h5M118 108h1M135 108h1M139 108h1M141 108h5M151 108h2M9 109h1M14 109h3M20 109h1M41 109h1M52 109h1M71 109h1M75 109h1M86 109h1M103 109h1M106 109h1M108 109h1M114 109h2M118 109h1M134 109h1M138 109h1M140 109h1M146 109h3M153 109h1M9 110h1M20 110h1M41 110h1M44 110h1M50 110h1M53 110h1M71 110h1M74 110h1M76 110h1M82 110h2M86 110h1M102 110h1M106 110h1M108 110h1M114 110h1M116 110h1M119 110h1M133 110h1M137 110h1M140 110h1M146 110h1M149 110h2M152 110h1M154 110h1M9 111h1M12 111h1M18 111h1M21 111h1M40 111h1M44 111h1M50 111h1M53 111h1M70 111h1M74 111h1M76 111h1M82 111h1M84 111h1M87 111h1M102 111h1M105 111h1M108 111h1M114 111h1M117 111h4M132 111h1M137 111h1M140 111h1M146 111h1M151 111h1M154 111h1M8 112h1M12 112h1M18 112h1M21 112h1M40 112h1M43 112h2M50 112h2M54 112h1M70 112h1M73 112h1M76 112h1M82 112h1M85 112h4M102 112h4M108 112h1M114 112h1M117 112h1M120 112h1M132 112h3M136 112h1M140 112h1M146 112h1M152 112h2M8 113h1M11 113h2M18 113h2M22 113h1M40 113h1M43 113h2M50 113h2M54 113h1M70 113h4M76 113h1M82 113h1M85 113h1M88 113h1M102 113h1M105 113h1M108 113h1M114 113h1M117 113h1M120 113h1M132 113h1M135 113h1M140 113h1M146 113h1M8 114h1M11 114h2M18 114h2M22 114h1M39 114h1M41 114h2M44 114h1M50 114h2M53 114h1M55 114h1M70 114h1M73 114h1M76 114h1M82 114h1M85 114h1M88 114h1M102 114h1M105 114h1M108 114h1M114 114h1M118 114h2M132 114h1M135 114h1M140 114h1M146 114h1M7 115h1M9 115h2M12 115h1M18 115h2M21 115h1M23 115h1M39 115h1M42 115h1M44 115h1M50 115h1M52 115h1M55 115h1M70 115h1M73 115h1M76 115h1M82 115h1M86 115h2M103 115h2M108 115h7M133 115h2M140 115h7M7 116h1M10 116h1M12 116h1M18 116h1M20 116h1M23 116h1M40 116h2M44 116h1M50 116h1M53 116h2M71 116h2M76 116h7M108 116h1M114 116h1M139 116h1M146 116h1M8 117h2M12 117h1M18 117h1M21 117h2M44 117h7M76 117h1M82 117h1M108 117h1M114 117h1M139 117h1M147 117h1M12 118h7M44 118h1M50 118h1M76 118h1M82 118h1M107 118h1M114 118h1M138 118h1M143 118h1M148 118h1M12 119h1M18 119h1M44 119h1M50 119h1M75 119h1M82 119h1M107 119h1M111 119h1M115 119h1M137 119h1M142 119h1M144 119h2M148 119h1M12 120h1M18 120h1M43 120h1M47 120h2M51 120h1M75 120h1M79 120h1M83 120h1M106 120h1M110 120h1M112 120h1M116 120h2M137 120h1M141 120h2M146 120h1M148 120h2M11 121h1M15 121h2M19 121h1M43 121h1M46 121h1M48 121h1M51 121h1M74 121h1M78 121h1M80 121h1M84 121h2M105 121h1M107 121h1M109 121h1M113 121h1M115 121h1M118 121h1M137 121h5M146 121h2M150 121h1M11 122h1M14 122h1M16 122h1M19 122h1M42 122h1M44 122h2M48 122h1M51 122h3M73 122h1M75 122h1M77 122h1M81 122h1M83 122h1M86 122h1M105 122h1M108 122h1M114 122h1M117 122h1M137 122h1M140 122h1M146 122h1M149 122h2M10 123h1M12 123h2M16 123h1M19 123h3M42 123h1M45 123h1M48 123h1M50 123h1M54 123h1M73 123h1M76 123h1M82 123h1M85 123h1M106 123h1M109 123h1M115 123h2M137 123h2M141 123h1M147 123h2M10 124h1M13 124h1M16 124h1M18 124h1M22 124h1M43 124h1M46 124h1M49 124h1M53 124h2M74 124h1M77 124h1M83 124h2M107 124h1M109 124h1M139 124h3M11 125h1M14 125h1M17 125h1M21 125h2M44 125h1M46 125h1M49 125h4M75 125h1M77 125h1M108 125h1M12 126h1M14 126h1M17 126h4M45 126h1M76 126h1M13 127h1M13 128h5M45 128h5M12 129h1M18 129h1M44 129h1M50 129h1M11 130h1M19 130h1M43 130h1M51 130h1M10 131h1M20 131h1M42 131h1M52 131h1M9 132h1M13 132h9M41 132h1M45 132h9M9 133h1M13 133h1M21 133h1M41 133h1M45 133h1M53 133h1M9 134h1M13 134h1M21 134h1M41 134h1M45 134h1M53 134h1M9 135h1M13 135h1M21 135h1M41 135h1M45 135h1M53 135h1M77 135h5M9 136h1M12 136h1M21 136h1M41 136h1M44 136h1M53 136h1M76 136h1M82 136h1M10 137h1M12 137h1M20 137h1M42 137h1M44 137h1M52 137h1M75 137h1M83 137h1M10 138h3M19 138h1M21 138h1M41 138h1M43 138h2M51 138h1M53 138h2M74 138h1M84 138h1M8 139h2M12 139h1M18 139h1M22 139h1M39 139h2M44 139h1M50 139h1M55 139h3M73 139h1M77 139h9M7 140h1M11 140h1M13 140h5M23 140h2M37 140h2M45 140h5M58 140h1M73 140h1M77 140h1M85 140h1M6 141h1M10 141h1M12 141h1M18 141h3M25 141h1M36 141h1M42 141h3M50 141h3M57 141h1M59 141h1M73 141h1M77 141h1M85 141h1M5 142h1M9 142h1M12 142h1M18 142h1M21 142h2M24 142h1M26 142h1M35 142h1M40 142h2M44 142h1M50 142h1M53 142h2M57 142h1M59 142h1M73 142h1M77 142h1M85 142h1M4 143h1M9 143h1M12 143h1M18 143h1M23 143h1M26 143h1M35 143h3M39 143h1M44 143h1M50 143h1M55 143h4M73 143h1M76 143h1M85 143h1M4 144h3M8 144h1M12 144h1M18 144h1M24 144h2M35 144h1M38 144h1M44 144h1M50 144h1M74 144h1M76 144h1M84 144h1M4 145h1M7 145h1M12 145h1M18 145h1M35 145h1M38 145h1M44 145h1M50 145h1M74 145h3M83 145h1M4 146h1M7 146h1M12 146h1M18 146h1M36 146h2M44 146h1M48 146h3M72 146h2M76 146h1M82 146h1M5 147h2M12 147h7M44 147h4M50 147h1M70 147h2M77 147h6M11 148h1M18 148h1M43 148h1M51 148h1M69 148h1M75 148h1M82 148h1M11 149h1M19 149h1M43 149h1M52 149h1M69 149h1M72 149h1M74 149h1M82 149h2M10 150h1M15 150h1M20 150h1M42 150h1M47 150h1M52 150h1M55 150h1M69 150h1M73 150h2M82 150h1M84 150h1M9 151h1M14 151h1M16 151h2M20 151h1M41 151h1M47 151h2M53 151h2M56 151h1M70 151h1M72 151h1M75 151h1M82 151h1M84 151h1M9 152h1M13 152h2M18 152h1M20 152h2M40 152h1M42 152h1M46 152h1M49 152h1M52 152h1M56 152h1M71 152h2M75 152h9M9 153h5M18 153h2M22 153h1M40 153h1M43 153h3M50 153h2M55 153h1M73 153h2M76 153h2M81 153h1M83 153h2M9 154h1M12 154h1M18 154h1M21 154h2M40 154h1M44 154h1M51 154h1M54 154h1M78 154h2M82 154h1M85 154h1M9 155h2M13 155h1M19 155h2M41 155h2M45 155h1M52 155h2M78 155h2M82 155h1M85 155h1M11 156h3M43 156h2M76 156h2M80 156h2M84 156h1M70 157h1M76 157h10M93 157h1M71 158h1M76 158h1M81 158h1M86 158h1M89 158h1M92 158h1M72 159h2M76 159h11M88 159h1M91 159h1" />
</svg>